<?xml version="1.0" encoding="UTF-8"?>
<svg width="180px" height="48px" viewBox="0 0 180 48" version="1.1" xmlns="http://www.w3.org/2000/svg" xmlns:xlink="http://www.w3.org/1999/xlink">
    <!-- Generator: Sketch 43.2 (39069) - http://www.bohemiancoding.com/sketch -->
    <title>logo</title>
    <desc>Created with Sketch.</desc>
    <defs>
        <linearGradient x1="50%" y1="0%" x2="50%" y2="97.4589445%" id="linearGradient-1">
            <stop stop-color="#BD0219" offset="0%"></stop>
            <stop stop-color="#FF001F" offset="100%"></stop>
        </linearGradient>
    </defs>
    <g id="Symbols" stroke="none" stroke-width="1" fill="none" fill-rule="evenodd">
        <g id="header,-desktop" transform="translate(0.000000, -72.000000)">
            <g id="header">
                <g id="logo" transform="translate(0.000000, 72.000000)">
                    <path d="M69.56,32.16 C69.2,30.168 67.592,27.624 63.344,27.624 C60.08,27.624 57.248,29.88 57.248,33.096 C57.248,35.616 59,37.536 61.88,38.088 L64.208,38.52 C65.336,38.736 66.032,39.36 66.032,40.224 C66.032,41.28 65.12,42 63.632,42 C61.304,42 60.248,40.632 60.104,39.072 L56.624,39.912 C56.864,42.312 58.88,45.36 63.584,45.36 C67.64,45.36 69.872,42.648 69.872,39.984 C69.872,37.56 68.192,35.472 64.952,34.872 L62.672,34.44 C61.496,34.224 60.992,33.624 60.992,32.808 C60.992,31.872 61.904,30.984 63.32,30.984 C65.384,30.984 66.032,32.328 66.152,33.12 L69.56,32.16 Z M74.86,37.608 L79.636,37.608 C79.588,36.696 78.964,35.592 77.236,35.592 C75.7,35.592 74.932,36.72 74.86,37.608 Z M79.9,40.704 L82.948,41.568 C82.372,43.632 80.476,45.36 77.452,45.36 C74.164,45.36 71.236,43.008 71.236,39 C71.236,35.16 74.092,32.712 77.188,32.712 C80.884,32.712 83.164,34.992 83.164,38.832 C83.164,39.336 83.116,39.888 83.092,39.96 L74.788,39.96 C74.86,41.304 76.084,42.264 77.5,42.264 C78.82,42.264 79.564,41.64 79.9,40.704 Z M89.064,38.16 C89.064,36.96 89.832,36.072 91.032,36.072 C92.352,36.072 92.976,36.96 92.976,38.136 L92.976,45 L96.624,45 L96.624,37.512 C96.624,34.896 95.28,32.76 92.28,32.76 C91.056,32.76 89.592,33.312 88.944,34.44 L88.944,33.072 L85.416,33.072 L85.416,45 L89.064,45 L89.064,38.16 Z M111.332,27.624 L111.332,42.864 C111.332,43.944 111.404,44.736 111.428,45 L107.924,45 C107.9,44.856 107.828,44.328 107.828,43.848 C107.276,44.664 106.076,45.264 104.636,45.264 C101.276,45.264 98.732,42.672 98.732,39 C98.732,35.448 101.132,32.784 104.516,32.784 C106.556,32.784 107.444,33.552 107.732,34.008 L107.732,27.624 L111.332,27.624 Z M102.404,39.024 C102.404,40.992 103.676,42 105.092,42 C106.508,42 107.78,40.992 107.78,39.024 C107.78,37.032 106.508,36.072 105.092,36.072 C103.676,36.072 102.404,37.032 102.404,39.024 Z M122.608,45.36 C127.888,45.36 130.144,41.76 130.696,39.408 L127.072,38.376 C126.736,39.6 125.56,41.568 122.608,41.568 C120.064,41.568 117.712,39.72 117.712,36.528 C117.712,32.952 120.28,31.32 122.56,31.32 C125.56,31.32 126.64,33.312 126.904,34.488 L130.48,33.36 C129.928,30.912 127.672,27.624 122.56,27.624 C117.808,27.624 113.776,31.224 113.776,36.528 C113.776,41.832 117.712,45.36 122.608,45.36 Z M140.388,33.072 C140.148,33 139.788,32.952 139.428,32.952 C138.468,32.952 136.956,33.336 136.332,34.68 L136.332,33.072 L132.804,33.072 L132.804,45 L136.452,45 L136.452,39.792 C136.452,37.416 137.772,36.552 139.236,36.552 C139.596,36.552 139.98,36.576 140.388,36.672 L140.388,33.072 Z M145.112,37.608 L149.888,37.608 C149.84,36.696 149.216,35.592 147.488,35.592 C145.952,35.592 145.184,36.72 145.112,37.608 Z M150.152,40.704 L153.2,41.568 C152.624,43.632 150.728,45.36 147.704,45.36 C144.416,45.36 141.488,43.008 141.488,39 C141.488,35.16 144.344,32.712 147.44,32.712 C151.136,32.712 153.416,34.992 153.416,38.832 C153.416,39.336 153.368,39.888 153.344,39.96 L145.04,39.96 C145.112,41.304 146.336,42.264 147.752,42.264 C149.072,42.264 149.816,41.64 150.152,40.704 Z M167.404,27.624 L167.404,42.864 C167.404,43.944 167.476,44.736 167.5,45 L163.996,45 C163.972,44.856 163.9,44.328 163.9,43.848 C163.348,44.664 162.148,45.264 160.708,45.264 C157.348,45.264 154.804,42.672 154.804,39 C154.804,35.448 157.204,32.784 160.588,32.784 C162.628,32.784 163.516,33.552 163.804,34.008 L163.804,27.624 L167.404,27.624 Z M158.476,39.024 C158.476,40.992 159.748,42 161.164,42 C162.58,42 163.852,40.992 163.852,39.024 C163.852,37.032 162.58,36.072 161.164,36.072 C159.748,36.072 158.476,37.032 158.476,39.024 Z M169.608,41.616 C169.704,42.936 170.904,45.36 174.648,45.36 C177.84,45.36 179.4,43.368 179.4,41.328 C179.4,39.576 178.2,38.088 175.728,37.584 L174.144,37.272 C173.616,37.176 173.208,36.888 173.208,36.384 C173.208,35.76 173.808,35.352 174.504,35.352 C175.608,35.352 176.112,36.024 176.208,36.816 L179.232,36.264 C179.112,34.872 177.912,32.712 174.456,32.712 C171.792,32.712 169.872,34.488 169.872,36.672 C169.872,38.352 170.88,39.792 173.424,40.344 L174.792,40.656 C175.68,40.848 175.968,41.208 175.968,41.64 C175.968,42.168 175.512,42.672 174.576,42.672 C173.328,42.672 172.752,41.88 172.704,41.064 L169.608,41.616 Z" id="SendCreds" fill="#FFFFFF"></path>
                    <g id="icon-v1">
                        <rect id="bg" fill="url(#linearGradient-1)" x="0" y="0" width="48" height="48" rx="10"></rect>
                        <path d="M24,41 C24,41 10,34.8181818 10,16.2727273 L24,7 L38,16.2727273 C38,34.8181818 24,40.9891818 24,41 Z M13.1515556,17.9000909 C13.7551111,29.9731818 20.9977778,35.6403636 23.9937778,37.4794545 C27.1048889,35.5754545 34.2495556,29.9144545 34.8484444,17.9016364 L24,10.7090909 L13.1515556,17.9000909 Z" id="noun_638408_cc" fill="#FFFFFF" fill-rule="nonzero"></path>
                        <polygon id="*" fill="#FFFFFF" points="25.222 18.066 22.778 18.066 22.778 21.472 19.684 20.406 18.93 22.642 22.076 23.682 20.1 26.308 22.024 27.712 23.974 25.008 26.054 27.738 27.952 26.334 25.924 23.682 29.07 22.642 28.316 20.406 25.222 21.446"></polygon>
                    </g>
                </g>
            </g>
        </g>
    </g>
</svg>